<svg xmlns="http://www.w3.org/2000/svg" width="240" height="72" viewBox="0 0 240 72">
  

  
  <path d="M36 14 Q58 36 36 58 Q14 36 36 14 Z" fill="none" stroke="#F1F0F7" stroke-width="1.5"></path>

  
  <circle cx="36" cy="36" r="14" fill="none" stroke="#94A3B8" stroke-width="0.75"></circle>

  
  <g stroke="#CBD5E1" stroke-width="1" opacity="0.7">
    <line x1="36" y1="24" x2="36" y2="20"></line>
    <line x1="36" y1="48" x2="36" y2="52"></line>
    <line x1="24" y1="36" x2="20" y2="36"></line>
    <line x1="48" y1="36" x2="52" y2="36"></line>
    <line x1="27.9" y1="27.9" x2="25.1" y2="25.1"></line>
    <line x1="44.1" y1="44.1" x2="46.9" y2="46.9"></line>
    <line x1="44.1" y1="27.9" x2="46.9" y2="25.1"></line>
    <line x1="27.9" y1="44.1" x2="25.1" y2="46.9"></line>
  </g>

  
  <circle cx="36" cy="36" r="6" fill="#F1F0F7"></circle>

  
  <circle cx="36" cy="36" r="2.5" fill="#090910"></circle>

  
  <g stroke="#475569" stroke-width="1" stroke-linecap="round">
    <line x1="36" y1="14" x2="36" y2="10"></line>
    <line x1="36" y1="58" x2="36" y2="62"></line>
    <line x1="14" y1="36" x2="10" y2="36"></line>
    <line x1="58" y1="36" x2="62" y2="36"></line>
  </g>

  
  
  <text x="80" y="44" font-family="Georgia, serif" font-size="22" font-weight="700" letter-spacing="3" fill="#94A3B8">I</text>
  
  <text x="93" y="44" font-family="Georgia, serif" font-size="22" font-weight="700" letter-spacing="3" fill="#F1F0F7">Arcan</text>
  
  <text x="176" y="44" font-family="Georgia, serif" font-size="22" font-weight="700" letter-spacing="3" fill="#94A3B8">IA</text>
</svg>